<svg id="Layer_1" data-name="Layer 1" xmlns="http://www.w3.org/2000/svg" xmlns:xlink="http://www.w3.org/1999/xlink" viewBox="0 0 412.55 142.81"><defs><style>.cls-1{fill:url(#linear-gradient);}.cls-2{fill:url(#linear-gradient-2);}.cls-3{fill:url(#linear-gradient-3);}.cls-4{fill:url(#linear-gradient-4);}.cls-5{fill:url(#linear-gradient-5);}.cls-6{fill:url(#linear-gradient-6);}.cls-7{fill:url(#linear-gradient-7);}.cls-8{fill:#595a5a;}</style><linearGradient id="linear-gradient" x1="-148.99" y1="-348.8" x2="-147.99" y2="-348.8" gradientTransform="matrix(33.62, -58.24, -58.24, -33.62, -15278.36, -20336.04)" gradientUnits="userSpaceOnUse"><stop offset="0" stop-color="#183b64"/><stop offset="0.26" stop-color="#185783"/><stop offset="0.5" stop-color="#1873a2"/><stop offset="0.65" stop-color="#18709f"/><stop offset="0.76" stop-color="#196796"/><stop offset="0.85" stop-color="#195886"/><stop offset="0.94" stop-color="#1a4270"/><stop offset="1" stop-color="#1b2d5a"/></linearGradient><linearGradient id="linear-gradient-2" x1="-148.99" y1="-348.8" x2="-147.99" y2="-348.8" gradientTransform="matrix(38.07, -65.93, -65.93, -38.07, -17243.75, -23021.06)" xlink:href="#linear-gradient"/><linearGradient id="linear-gradient-3" x1="-148.99" y1="-348.8" x2="-147.99" y2="-348.8" gradientTransform="matrix(33.43, -57.9, -57.9, -33.43, -15072.79, -20208.09)" xlink:href="#linear-gradient"/><linearGradient id="linear-gradient-4" x1="-148.99" y1="-348.8" x2="-147.99" y2="-348.8" gradientTransform="matrix(35.03, -60.68, -60.68, -35.03, -15751.57, -21183.67)" xlink:href="#linear-gradient"/><linearGradient id="linear-gradient-5" x1="-148.99" y1="-348.8" x2="-147.99" y2="-348.8" gradientTransform="matrix(34.86, -60.39, -60.39, -34.86, -15618.94, -21071.47)" xlink:href="#linear-gradient"/><linearGradient id="linear-gradient-6" x1="-148.99" y1="-348.8" x2="-147.99" y2="-348.8" gradientTransform="matrix(33.77, -58.48, -58.48, -33.77, -15068.4, -20412.96)" xlink:href="#linear-gradient"/><linearGradient id="linear-gradient-7" x1="-148.99" y1="-348.8" x2="-147.99" y2="-348.8" gradientTransform="matrix(32.68, -56.61, -56.61, -32.68, -14517.54, -19757.72)" xlink:href="#linear-gradient"/></defs><path class="cls-1" d="M69.71,18.63a12.43,12.43,0,0,1-.09,1.61,3.43,3.43,0,0,1-.32,1.1,1.53,1.53,0,0,1-.53.61,1.29,1.29,0,0,1-.7.19H50.46V76.81a1.18,1.18,0,0,1-.19.68,1.33,1.33,0,0,1-.68.47,7.51,7.51,0,0,1-1.28.29,16.64,16.64,0,0,1-4,0A7.5,7.5,0,0,1,43,78a1.26,1.26,0,0,1-.67-.47,1.19,1.19,0,0,1-.2-.68V22.14H24.54a1.33,1.33,0,0,1-.71-.19,1.4,1.4,0,0,1-.5-.61,4.42,4.42,0,0,1-.32-1.1,9.36,9.36,0,0,1-.12-1.61A9.87,9.87,0,0,1,23,17a4.8,4.8,0,0,1,.32-1.14A1.22,1.22,0,0,1,24.54,15H68.07a1.29,1.29,0,0,1,.7.19,1.44,1.44,0,0,1,.53.64A3.71,3.71,0,0,1,69.62,17,13.1,13.1,0,0,1,69.71,18.63Z"/><path class="cls-2" d="M123.84,76.81a1.19,1.19,0,0,1-.2.68A1.3,1.3,0,0,1,123,78a7.65,7.65,0,0,1-1.29.29,13.36,13.36,0,0,1-2,.12,13.94,13.94,0,0,1-2-.12,7.54,7.54,0,0,1-1.25-.29,1.29,1.29,0,0,1-.68-.47,1.18,1.18,0,0,1-.19-.68v-28H87.08v28a1.19,1.19,0,0,1-.2.68,1.3,1.3,0,0,1-.67.47,7.65,7.65,0,0,1-1.29.29,13.82,13.82,0,0,1-2,.12,14.06,14.06,0,0,1-2-.12,7.57,7.57,0,0,1-1.3-.29,1.33,1.33,0,0,1-.68-.47,1.18,1.18,0,0,1-.19-.68V16.29a1.2,1.2,0,0,1,.19-.68,1.32,1.32,0,0,1,.68-.46,7.57,7.57,0,0,1,1.3-.29,13.9,13.9,0,0,1,2-.13,13.64,13.64,0,0,1,2,.13,7.65,7.65,0,0,1,1.29.29,1.29,1.29,0,0,1,.67.46,1.21,1.21,0,0,1,.2.68V41.53h28.49V16.29a1.2,1.2,0,0,1,.19-.68,1.28,1.28,0,0,1,.68-.46,7.54,7.54,0,0,1,1.25-.29,13.74,13.74,0,0,1,2-.13,13.2,13.2,0,0,1,2,.13,7.65,7.65,0,0,1,1.29.29,1.29,1.29,0,0,1,.67.46,1.21,1.21,0,0,1,.2.68Z"/><path class="cls-3" d="M182.22,76.81a1.45,1.45,0,0,1-.15.68,1.1,1.1,0,0,1-.63.49,5.1,5.1,0,0,1-1.35.29,20.54,20.54,0,0,1-2.32.1,16.5,16.5,0,0,1-2.06-.1,4.52,4.52,0,0,1-1.28-.31,1.82,1.82,0,0,1-.75-.61,3.89,3.89,0,0,1-.46-1l-5.75-14.86q-1-2.53-2.11-4.65a15,15,0,0,0-2.59-3.66,10.63,10.63,0,0,0-3.53-2.38,12.53,12.53,0,0,0-4.88-.86h-5.57V76.81a1.12,1.12,0,0,1-.21.68,1.47,1.47,0,0,1-.68.47,7,7,0,0,1-1.26.29,16.81,16.81,0,0,1-4,0,7.51,7.51,0,0,1-1.28-.29,1.29,1.29,0,0,1-.68-.47,1.18,1.18,0,0,1-.19-.68V18.44a3.16,3.16,0,0,1,1-2.66,3.42,3.42,0,0,1,2.1-.75h13.3c1.58,0,2.9,0,3.94.12s2,.17,2.83.27a23.65,23.65,0,0,1,6.41,2,15.1,15.1,0,0,1,4.67,3.45,14,14,0,0,1,2.83,4.8,18.06,18.06,0,0,1,.94,6,17.85,17.85,0,0,1-.84,5.68,13.75,13.75,0,0,1-2.45,4.43,15.8,15.8,0,0,1-3.82,3.34,24.44,24.44,0,0,1-5,2.39,11.67,11.67,0,0,1,2.81,1.73,14.13,14.13,0,0,1,2.34,2.51,23,23,0,0,1,2.06,3.36c.64,1.27,1.29,2.7,1.93,4.29l5.61,13.88c.45,1.17.74,2,.87,2.47A4.46,4.46,0,0,1,182.22,76.81ZM169.69,32.52a11.37,11.37,0,0,0-1.64-6.26,9.31,9.31,0,0,0-5.52-3.68,15.7,15.7,0,0,0-2.73-.49c-1-.09-2.35-.14-4-.14h-7V43.19h8.13a18.06,18.06,0,0,0,5.68-.8,11.32,11.32,0,0,0,4-2.24,8.69,8.69,0,0,0,2.35-3.39A11.7,11.7,0,0,0,169.69,32.52Z"/><path class="cls-4" d="M229.09,74.62a11.21,11.21,0,0,1-.1,1.53,3.4,3.4,0,0,1-.34,1.1,1.74,1.74,0,0,1-.55.63,1.33,1.33,0,0,1-.71.2h-30a3.38,3.38,0,0,1-2.11-.76,3.14,3.14,0,0,1-1-2.65V18.44a3.16,3.16,0,0,1,1-2.66,3.43,3.43,0,0,1,2.11-.75h29.69a1.33,1.33,0,0,1,.71.19,1.28,1.28,0,0,1,.5.64,4.75,4.75,0,0,1,.32,1.09,9.29,9.29,0,0,1,.12,1.63,8.68,8.68,0,0,1-.12,1.54,4.28,4.28,0,0,1-.32,1.07,1.29,1.29,0,0,1-.5.61,1.33,1.33,0,0,1-.71.2H202.58V41.78h21a1.16,1.16,0,0,1,.7.22,1.8,1.8,0,0,1,.54.61,3.34,3.34,0,0,1,.31,1.07,12.26,12.26,0,0,1,.1,1.61,10.9,10.9,0,0,1-.1,1.51,3.33,3.33,0,0,1-.31,1,1.39,1.39,0,0,1-.54.56,1.48,1.48,0,0,1-.7.17h-21V71.11h24.81a1.33,1.33,0,0,1,.71.2,1.74,1.74,0,0,1,.55.61A3.06,3.06,0,0,1,229,73,12,12,0,0,1,229.09,74.62Z"/><path class="cls-5" d="M288.43,75.11a6.15,6.15,0,0,1,.42,1.73,1.18,1.18,0,0,1-.37,1,2.26,2.26,0,0,1-1.28.44,21.69,21.69,0,0,1-2.39.1c-1,0-1.8,0-2.4-.07a5.6,5.6,0,0,1-1.35-.24,1.47,1.47,0,0,1-.68-.47,4,4,0,0,1-.41-.73L274.6,61.51h-26l-5.13,15.16a2.42,2.42,0,0,1-.39.75,1.89,1.89,0,0,1-.7.54,4.26,4.26,0,0,1-1.3.31,18.82,18.82,0,0,1-2.2.1,17.92,17.92,0,0,1-2.3-.12,2.34,2.34,0,0,1-1.26-.46,1.27,1.27,0,0,1-.34-1,6.44,6.44,0,0,1,.41-1.73l21-58.57a2.42,2.42,0,0,1,.5-.88,2.09,2.09,0,0,1,.92-.53,7,7,0,0,1,1.55-.27c.63-.05,1.43-.08,2.4-.08s1.88,0,2.56.08a7.53,7.53,0,0,1,1.64.27,2.13,2.13,0,0,1,1,.56,2.5,2.5,0,0,1,.53.9Zm-26.94-51.7h-.05L250.66,54.84h21.77Z"/><path class="cls-6" d="M347,45.63a44.67,44.67,0,0,1-2.08,14.3,26,26,0,0,1-6.07,10.13,25,25,0,0,1-9.8,6,42.68,42.68,0,0,1-13.83,2H302a3.4,3.4,0,0,1-2.11-.76,3.14,3.14,0,0,1-1-2.65V18.44a3.16,3.16,0,0,1,1-2.66A3.45,3.45,0,0,1,302,15h14.17a38.94,38.94,0,0,1,13.74,2.12,24.92,24.92,0,0,1,9.4,6.09,26,26,0,0,1,5.76,9.62A38.74,38.74,0,0,1,347,45.63Zm-8.76.34A34.59,34.59,0,0,0,337,36.44a20.48,20.48,0,0,0-3.95-7.62,18.13,18.13,0,0,0-6.79-5A26.6,26.6,0,0,0,315.67,22H307.2V71.06h8.56a29.43,29.43,0,0,0,10.11-1.51,16.71,16.71,0,0,0,6.87-4.63,20.15,20.15,0,0,0,4.14-7.82A39.75,39.75,0,0,0,338.25,46Z"/><path class="cls-7" d="M393.44,60.39a18.36,18.36,0,0,1-1.62,7.89,16.93,16.93,0,0,1-4.5,5.88,19.59,19.59,0,0,1-6.77,3.63A28,28,0,0,1,372.16,79a29.58,29.58,0,0,1-5.83-.53,32.22,32.22,0,0,1-4.79-1.32A22.4,22.4,0,0,1,358,75.54a9.31,9.31,0,0,1-2-1.41,3.47,3.47,0,0,1-.82-1.49,8.6,8.6,0,0,1-.27-2.41,12.7,12.7,0,0,1,.1-1.78,4.09,4.09,0,0,1,.29-1.14,1.34,1.34,0,0,1,.48-.61,1.37,1.37,0,0,1,.68-.17,4,4,0,0,1,1.91.83,30.28,30.28,0,0,0,3.17,1.8A30.78,30.78,0,0,0,366.24,71a21.13,21.13,0,0,0,6.31.85,15.94,15.94,0,0,0,5-.73A11.7,11.7,0,0,0,381.37,69a8.82,8.82,0,0,0,2.5-3.29,10.78,10.78,0,0,0,.87-4.43,8.38,8.38,0,0,0-1.21-4.58,12.3,12.3,0,0,0-3.19-3.34,27.51,27.51,0,0,0-4.53-2.63l-5.2-2.44a55.56,55.56,0,0,1-5.17-2.75,21.8,21.8,0,0,1-4.5-3.56,16.64,16.64,0,0,1-3.22-4.8,16.07,16.07,0,0,1-1.23-6.6,16.64,16.64,0,0,1,1.43-7,14.55,14.55,0,0,1,4-5.19,17.65,17.65,0,0,1,6.05-3.19,25.28,25.28,0,0,1,7.57-1.1,23.78,23.78,0,0,1,4.18.37,28.81,28.81,0,0,1,4,1A21.86,21.86,0,0,1,387,16.81,8.84,8.84,0,0,1,388.87,18a4.09,4.09,0,0,1,.61.73,3.42,3.42,0,0,1,.24.69,7.29,7.29,0,0,1,.14,1c0,.39.05.89.05,1.51a14.65,14.65,0,0,1-.07,1.56,5.92,5.92,0,0,1-.22,1.14,1.36,1.36,0,0,1-.41.68.91.91,0,0,1-.6.22,3.88,3.88,0,0,1-1.67-.68c-.76-.45-1.69-1-2.78-1.54a25.32,25.32,0,0,0-3.9-1.55,16.83,16.83,0,0,0-5.05-.71,13.3,13.3,0,0,0-4.55.71,9.28,9.28,0,0,0-3.19,1.87,7.48,7.48,0,0,0-1.89,2.78,9.26,9.26,0,0,0-.63,3.41,8.33,8.33,0,0,0,1.21,4.53,12.34,12.34,0,0,0,3.22,3.36A28.06,28.06,0,0,0,374,40.41q2.57,1.23,5.22,2.47t5.23,2.72A21.76,21.76,0,0,1,389,49.11a15.27,15.27,0,0,1,4.47,11.28Z"/><path class="cls-8" d="M47.53,113.84c0,.21,0,.39,0,.53a2.6,2.6,0,0,1-.06.37.85.85,0,0,1-.1.27,1.3,1.3,0,0,1-.2.26,2.79,2.79,0,0,1-.53.37,7.48,7.48,0,0,1-1,.43,8.55,8.55,0,0,1-1.29.34,8.71,8.71,0,0,1-1.58.13,8.24,8.24,0,0,1-3-.51,5.83,5.83,0,0,1-2.27-1.52A6.82,6.82,0,0,1,36.11,112a11.39,11.39,0,0,1-.5-3.53,11.07,11.07,0,0,1,.55-3.65,7.47,7.47,0,0,1,1.53-2.68,6.4,6.4,0,0,1,2.36-1.64,8,8,0,0,1,3-.56,7.86,7.86,0,0,1,1.3.11,9.2,9.2,0,0,1,1.15.29,5.55,5.55,0,0,1,.95.42,2.62,2.62,0,0,1,.59.41,1.23,1.23,0,0,1,.23.28.91.91,0,0,1,.1.28,2.37,2.37,0,0,1,.06.41c0,.16,0,.36,0,.59a5.53,5.53,0,0,1,0,.63,1.46,1.46,0,0,1-.09.43.57.57,0,0,1-.15.23l-.19.08a.91.91,0,0,1-.48-.22,7.3,7.3,0,0,0-.74-.49,6.11,6.11,0,0,0-1.08-.48,4.48,4.48,0,0,0-1.5-.22,3.65,3.65,0,0,0-1.71.39,3.73,3.73,0,0,0-1.29,1.12,5.33,5.33,0,0,0-.8,1.77,9.12,9.12,0,0,0-.27,2.32,8.93,8.93,0,0,0,.29,2.46,4.68,4.68,0,0,0,.83,1.72,3.45,3.45,0,0,0,1.31,1,4.32,4.32,0,0,0,1.72.33,4.78,4.78,0,0,0,1.51-.21,6.29,6.29,0,0,0,1.09-.45q.45-.26.75-.45a.92.92,0,0,1,.45-.2l.2.05a.41.41,0,0,1,.13.2,2.58,2.58,0,0,1,.07.42A6.49,6.49,0,0,1,47.53,113.84Z"/><path class="cls-8" d="M66.14,110.28a7.55,7.55,0,0,1-.44,2.65,5.14,5.14,0,0,1-1.28,2,5.64,5.64,0,0,1-2.09,1.24,9,9,0,0,1-2.87.42,9.12,9.12,0,0,1-2.72-.38,5.22,5.22,0,0,1-2-1.15,5,5,0,0,1-1.28-1.93,7.54,7.54,0,0,1-.44-2.69v-9.8l.07-.23a.57.57,0,0,1,.27-.16,3.65,3.65,0,0,1,.5-.1c.21,0,.48,0,.8,0s.58,0,.79,0a3.19,3.19,0,0,1,.49.1.57.57,0,0,1,.27.16l.08.23v9.51a5.15,5.15,0,0,0,.24,1.66,3.06,3.06,0,0,0,.68,1.17,2.71,2.71,0,0,0,1.06.69,4,4,0,0,0,1.37.23,3.7,3.7,0,0,0,1.38-.24,2.67,2.67,0,0,0,1-.69,3,3,0,0,0,.65-1.12,4.7,4.7,0,0,0,.23-1.51v-9.7l.08-.23a.53.53,0,0,1,.26-.16,3.11,3.11,0,0,1,.5-.1c.21,0,.48,0,.79,0s.58,0,.78,0a3.19,3.19,0,0,1,.49.1.53.53,0,0,1,.26.16l.08.23Z"/><path class="cls-8" d="M81.6,114.91a5.53,5.53,0,0,1,0,.63,1.9,1.9,0,0,1-.09.42.54.54,0,0,1-.16.25l-.22.07H73.72A1,1,0,0,1,73,116a1,1,0,0,1-.28-.79V100.62l.08-.23a.57.57,0,0,1,.27-.16,3.11,3.11,0,0,1,.5-.1c.21,0,.48,0,.79,0s.59,0,.8,0a3.36,3.36,0,0,1,.5.1.58.58,0,0,1,.26.16l.09.23v13H81.1l.22.07a.48.48,0,0,1,.16.22,1.8,1.8,0,0,1,.09.41A5.53,5.53,0,0,1,81.6,114.91Z"/><path class="cls-8" d="M95.5,101.52a3.59,3.59,0,0,1,0,.61,1.68,1.68,0,0,1-.09.41.51.51,0,0,1-.15.23l-.21.08H91v13l-.09.23a.58.58,0,0,1-.26.16,3.53,3.53,0,0,1-.51.1,5.82,5.82,0,0,1-.79,0,5.91,5.91,0,0,1-.79,0,3.11,3.11,0,0,1-.5-.1.57.57,0,0,1-.27-.16l-.08-.23v-13h-4l-.21-.08a.51.51,0,0,1-.15-.23,1.68,1.68,0,0,1-.09-.41,5.28,5.28,0,0,1,0-.61,5.72,5.72,0,0,1,0-.64,1.9,1.9,0,0,1,.09-.42.47.47,0,0,1,.15-.22l.21-.07H95l.21.07a.47.47,0,0,1,.15.22,1.9,1.9,0,0,1,.09.42A3.9,3.9,0,0,1,95.5,101.52Z"/><path class="cls-8" d="M113.66,110.28a7.55,7.55,0,0,1-.44,2.65,5.14,5.14,0,0,1-1.28,2,5.64,5.64,0,0,1-2.09,1.24,8.92,8.92,0,0,1-2.86.42,9.14,9.14,0,0,1-2.73-.38,5.22,5.22,0,0,1-2-1.15,5.1,5.1,0,0,1-1.28-1.93,7.54,7.54,0,0,1-.44-2.69v-9.8l.07-.23a.57.57,0,0,1,.27-.16,3.53,3.53,0,0,1,.51-.1c.2,0,.47,0,.79,0s.58,0,.79,0a3.65,3.65,0,0,1,.5.1.58.58,0,0,1,.26.16l.08.23v9.51a5.15,5.15,0,0,0,.24,1.66,3.06,3.06,0,0,0,.68,1.17,2.71,2.71,0,0,0,1.06.69,4,4,0,0,0,1.37.23,3.79,3.79,0,0,0,1.39-.24,2.71,2.71,0,0,0,1-.69,3,3,0,0,0,.65-1.12,4.44,4.44,0,0,0,.23-1.51v-9.7l.08-.23a.53.53,0,0,1,.26-.16,3.11,3.11,0,0,1,.5-.1c.21,0,.48,0,.79,0s.58,0,.78,0a3,3,0,0,1,.49.1.57.57,0,0,1,.27.16l.07.23Z"/><path class="cls-8" d="M132.22,115.86a.41.41,0,0,1-.05.23.38.38,0,0,1-.23.15,1.79,1.79,0,0,1-.55.09c-.24,0-.57,0-1,0s-.63,0-.84,0a1.79,1.79,0,0,1-.49-.09.59.59,0,0,1-.26-.17,1,1,0,0,1-.12-.26l-1.44-3.6c-.18-.41-.35-.77-.52-1.08a3.24,3.24,0,0,0-.55-.79,2.08,2.08,0,0,0-.7-.48,2.43,2.43,0,0,0-.92-.16h-1v6.13l-.08.23a.58.58,0,0,1-.26.16,3.36,3.36,0,0,1-.5.1,6,6,0,0,1-.8,0,5.91,5.91,0,0,1-.79,0,3.11,3.11,0,0,1-.5-.1.57.57,0,0,1-.27-.16l-.07-.23V101.2a1,1,0,0,1,.28-.79,1,1,0,0,1,.69-.24h4.17l1,0,.75.07a6.81,6.81,0,0,1,1.74.47,4.12,4.12,0,0,1,1.32.88,3.54,3.54,0,0,1,.83,1.28,4.73,4.73,0,0,1,.29,1.7,5,5,0,0,1-.21,1.48,3.61,3.61,0,0,1-.6,1.19,4,4,0,0,1-1,.9,5.34,5.34,0,0,1-1.34.63,3.2,3.2,0,0,1,.68.42,4.25,4.25,0,0,1,.6.6,6.3,6.3,0,0,1,.53.81,9,9,0,0,1,.48,1l1.36,3.18a5.76,5.76,0,0,1,.25.69A1.35,1.35,0,0,1,132.22,115.86ZM128,104.93a2.43,2.43,0,0,0-.36-1.35,2,2,0,0,0-1.18-.77c-.17,0-.36-.07-.57-.1s-.5,0-.88,0h-1.47v4.57h1.67a3.75,3.75,0,0,0,1.22-.17,2.27,2.27,0,0,0,.87-.47,1.84,1.84,0,0,0,.53-.73A2.54,2.54,0,0,0,128,104.93Z"/><path class="cls-8" d="M150.94,115.06a3.84,3.84,0,0,1,.18.71.4.4,0,0,1-.1.39.77.77,0,0,1-.48.17c-.24,0-.55,0-1,0l-1,0a2.06,2.06,0,0,1-.54-.08.46.46,0,0,1-.26-.15.9.9,0,0,1-.13-.26l-1.08-3.24h-6.05l-1,3.15a1.32,1.32,0,0,1-.13.29.62.62,0,0,1-.27.19,1.88,1.88,0,0,1-.51.09c-.22,0-.51,0-.86,0a7.18,7.18,0,0,1-.9,0,.76.76,0,0,1-.45-.18.49.49,0,0,1-.08-.41,3.53,3.53,0,0,1,.18-.69l5-14.3a1.53,1.53,0,0,1,.17-.34.68.68,0,0,1,.32-.2,3.48,3.48,0,0,1,.61-.09h2.19a4.34,4.34,0,0,1,.68.09.74.74,0,0,1,.35.21,1.16,1.16,0,0,1,.18.37Zm-7.4-11.81h0l-2.28,6.84h4.57Z"/><path class="cls-8" d="M165.15,114.91a5.53,5.53,0,0,1,0,.63,1.9,1.9,0,0,1-.09.42.47.47,0,0,1-.16.25l-.21.07h-7.39a1,1,0,0,1-.69-.24,1,1,0,0,1-.28-.79V100.62l.08-.23a.69.69,0,0,1,.27-.16,3.11,3.11,0,0,1,.5-.1c.22,0,.48,0,.79,0s.59,0,.8,0a3.36,3.36,0,0,1,.5.1.69.69,0,0,1,.27.16l.08.23v13h5.07l.21.07a.42.42,0,0,1,.16.22,1.8,1.8,0,0,1,.09.41A5.53,5.53,0,0,1,165.15,114.91Z"/><path class="cls-8" d="M190.22,113.84c0,.21,0,.39,0,.53a2.6,2.6,0,0,1-.06.37.85.85,0,0,1-.1.27,1.3,1.3,0,0,1-.2.26,2.79,2.79,0,0,1-.53.37,7.48,7.48,0,0,1-1,.43,8.88,8.88,0,0,1-1.29.34,8.71,8.71,0,0,1-1.58.13,8.24,8.24,0,0,1-3-.51,5.83,5.83,0,0,1-2.27-1.52A6.82,6.82,0,0,1,178.8,112a11.39,11.39,0,0,1-.5-3.53,11.07,11.07,0,0,1,.55-3.65,7.47,7.47,0,0,1,1.53-2.68,6.32,6.32,0,0,1,2.36-1.64,8,8,0,0,1,3-.56,7.65,7.65,0,0,1,1.29.11,8.93,8.93,0,0,1,1.16.29,5.55,5.55,0,0,1,.95.42,2.62,2.62,0,0,1,.59.41,1.23,1.23,0,0,1,.23.28.91.91,0,0,1,.1.28,4,4,0,0,1,.06.41c0,.16,0,.36,0,.59a5.53,5.53,0,0,1,0,.63,1.46,1.46,0,0,1-.09.43.57.57,0,0,1-.15.23l-.2.08a.91.91,0,0,1-.47-.22,7.3,7.3,0,0,0-.74-.49,6.11,6.11,0,0,0-1.08-.48,4.48,4.48,0,0,0-1.5-.22,3.53,3.53,0,0,0-3,1.51,5.33,5.33,0,0,0-.8,1.77,9.12,9.12,0,0,0-.27,2.32,8.93,8.93,0,0,0,.29,2.46,4.68,4.68,0,0,0,.83,1.72,3.45,3.45,0,0,0,1.31,1,4.29,4.29,0,0,0,1.72.33,4.83,4.83,0,0,0,1.51-.21,6.29,6.29,0,0,0,1.09-.45q.45-.26.75-.45a.92.92,0,0,1,.45-.2l.2.05a.41.41,0,0,1,.13.2,2.58,2.58,0,0,1,.07.42A6.49,6.49,0,0,1,190.22,113.84Z"/><path class="cls-8" d="M210,108a12,12,0,0,1-.5,3.59,7.34,7.34,0,0,1-1.48,2.68,6.5,6.5,0,0,1-2.44,1.68,8.91,8.91,0,0,1-3.35.58,10.07,10.07,0,0,1-3.28-.49,5.69,5.69,0,0,1-2.34-1.5,6.5,6.5,0,0,1-1.4-2.57,12.91,12.91,0,0,1-.47-3.68,11.6,11.6,0,0,1,.5-3.52,7.25,7.25,0,0,1,1.48-2.66,6.5,6.5,0,0,1,2.44-1.68,8.92,8.92,0,0,1,3.36-.59,10,10,0,0,1,3.24.49,5.7,5.7,0,0,1,2.34,1.49,6.71,6.71,0,0,1,1.42,2.55A12.28,12.28,0,0,1,210,108Zm-3.44.17a12.66,12.66,0,0,0-.2-2.31,5,5,0,0,0-.68-1.78,3.21,3.21,0,0,0-1.28-1.14,4.35,4.35,0,0,0-2-.41,4.09,4.09,0,0,0-2,.46,3.72,3.72,0,0,0-1.31,1.21,5.15,5.15,0,0,0-.71,1.78,11.27,11.27,0,0,0-.2,2.14,13.14,13.14,0,0,0,.2,2.38,5.19,5.19,0,0,0,.67,1.8,3.15,3.15,0,0,0,1.27,1.13,4.41,4.41,0,0,0,2,.4,4.09,4.09,0,0,0,2-.45,3.65,3.65,0,0,0,1.31-1.22,5.13,5.13,0,0,0,.7-1.8A10.93,10.93,0,0,0,206.55,108.21Z"/><path class="cls-8" d="M229.13,115.14a1.19,1.19,0,0,1-.1.51,1,1,0,0,1-.26.37,1.2,1.2,0,0,1-.4.22,1.91,1.91,0,0,1-.47.07h-1.39a2.88,2.88,0,0,1-.76-.09,1.45,1.45,0,0,1-.58-.32,2.79,2.79,0,0,1-.52-.62c-.16-.26-.35-.6-.56-1l-4-7.54c-.23-.45-.47-.93-.71-1.45s-.45-1-.65-1.51h0c0,.6.06,1.19.07,1.79s0,1.2,0,1.83v8.43l-.07.23a.5.5,0,0,1-.24.16,1.84,1.84,0,0,1-.45.11,5,5,0,0,1-.73,0,4.9,4.9,0,0,1-.73,0,1.64,1.64,0,0,1-.44-.11.47.47,0,0,1-.23-.16l-.06-.23V101.34a1.1,1.1,0,0,1,.34-.88,1.28,1.28,0,0,1,.84-.29h1.76a3.5,3.5,0,0,1,.79.08,1.63,1.63,0,0,1,.58.27,2,2,0,0,1,.48.52,7.08,7.08,0,0,1,.46.81l3.14,5.89q.27.54.54,1.05c.18.35.35.69.52,1s.33.68.48,1,.32.67.47,1h0c0-.58,0-1.19-.06-1.82s0-1.23,0-1.81v-7.55l.08-.23a.55.55,0,0,1,.25-.17,1.55,1.55,0,0,1,.46-.11,7.18,7.18,0,0,1,.73,0,7,7,0,0,1,.71,0,1.33,1.33,0,0,1,.44.11.44.44,0,0,1,.22.17l.06.23Z"/><path class="cls-8" d="M243.77,115.71a1,1,0,0,1-.16.34.54.54,0,0,1-.32.2,2.25,2.25,0,0,1-.61.09l-1,0h-.85a5.28,5.28,0,0,1-.61,0,1.76,1.76,0,0,1-.4-.08.89.89,0,0,1-.26-.12l-.16-.18a1.16,1.16,0,0,1-.11-.27l-4.79-14.28a3.66,3.66,0,0,1-.18-.71.43.43,0,0,1,.12-.39.92.92,0,0,1,.53-.16q.38,0,1,0c.38,0,.68,0,.89,0a2.26,2.26,0,0,1,.5.09.39.39,0,0,1,.24.18,1.63,1.63,0,0,1,.13.32l3.93,12.42h0l3.85-12.36a1.11,1.11,0,0,1,.12-.34.51.51,0,0,1,.26-.21,1.83,1.83,0,0,1,.51-.1c.23,0,.53,0,.92,0s.68,0,.89,0a.72.72,0,0,1,.44.18.49.49,0,0,1,.07.41,3.76,3.76,0,0,1-.19.7Z"/><path class="cls-8" d="M263.5,115a5,5,0,0,1,0,.6,2.1,2.1,0,0,1-.1.4.44.44,0,0,1-.15.21l-.21.07h-8.09a1,1,0,0,1-.69-.24,1,1,0,0,1-.28-.79v-14a1,1,0,0,1,.28-.79,1,1,0,0,1,.69-.24h8l.2.06a.47.47,0,0,1,.15.22,1.7,1.7,0,0,1,.09.4,5.22,5.22,0,0,1,0,.62,4.91,4.91,0,0,1,0,.59,1.61,1.61,0,0,1-.09.39.53.53,0,0,1-.15.22l-.2.07h-5.75v3.93h4.87l.2.07a.44.44,0,0,1,.16.21,1.5,1.5,0,0,1,.09.39,4.91,4.91,0,0,1,0,.59,5,5,0,0,1,0,.6,1.43,1.43,0,0,1-.09.37.39.39,0,0,1-.16.21l-.2.06h-4.87v4.55H263l.21.07a.44.44,0,0,1,.15.21,2.1,2.1,0,0,1,.1.4A5,5,0,0,1,263.5,115Z"/><path class="cls-8" d="M281.45,115.86a.52.52,0,0,1-.05.23.38.38,0,0,1-.24.15,1.68,1.68,0,0,1-.55.09c-.24,0-.56,0-1,0s-.63,0-.83,0a2,2,0,0,1-.5-.09.55.55,0,0,1-.25-.17,1,1,0,0,1-.12-.26l-1.45-3.6a11.11,11.11,0,0,0-.51-1.08,3.54,3.54,0,0,0-.55-.79,2.12,2.12,0,0,0-.71-.48,2.36,2.36,0,0,0-.92-.16h-1v6.13l-.08.23a.57.57,0,0,1-.27.16,3.11,3.11,0,0,1-.5.1,5.72,5.72,0,0,1-.79,0,5.82,5.82,0,0,1-.79,0,3.27,3.27,0,0,1-.51-.1.58.58,0,0,1-.26-.16l-.07-.23V101.2a1,1,0,0,1,.28-.79,1,1,0,0,1,.69-.24h4.17l1,0,.75.07a6.89,6.89,0,0,1,1.75.47,4.12,4.12,0,0,1,1.32.88,3.68,3.68,0,0,1,.83,1.28,4.74,4.74,0,0,1,.28,1.7,5,5,0,0,1-.2,1.48,4,4,0,0,1-.6,1.19,4.08,4.08,0,0,1-1,.9,5.27,5.27,0,0,1-1.33.63,3.2,3.2,0,0,1,.68.42,4.25,4.25,0,0,1,.6.6,7.58,7.58,0,0,1,.53.81c.16.31.32.65.48,1l1.36,3.18c.12.31.21.54.25.69A1.35,1.35,0,0,1,281.45,115.86Zm-4.22-10.93a2.43,2.43,0,0,0-.36-1.35,2,2,0,0,0-1.19-.77c-.16,0-.35-.07-.56-.1s-.51,0-.88,0h-1.47v4.57h1.67a3.79,3.79,0,0,0,1.22-.17,2.27,2.27,0,0,0,.87-.47,1.81,1.81,0,0,0,.52-.73A2.35,2.35,0,0,0,277.23,104.93Z"/><path class="cls-8" d="M296.26,111.45a4.91,4.91,0,0,1-.47,2.23,4.68,4.68,0,0,1-1.28,1.6,5.44,5.44,0,0,1-1.89,1,8,8,0,0,1-2.32.33,8.35,8.35,0,0,1-1.55-.14,8.17,8.17,0,0,1-1.26-.33,5.86,5.86,0,0,1-.92-.4,2.71,2.71,0,0,1-.53-.38.91.91,0,0,1-.23-.46,4.78,4.78,0,0,1-.07-.88,5.92,5.92,0,0,1,0-.65,1.49,1.49,0,0,1,.08-.42.46.46,0,0,1,.15-.23l.22-.07a1.1,1.1,0,0,1,.49.2,8.65,8.65,0,0,0,.81.46,6.46,6.46,0,0,0,1.19.45,5.54,5.54,0,0,0,1.6.21,3.85,3.85,0,0,0,1.07-.14,2.37,2.37,0,0,0,.81-.41,1.7,1.7,0,0,0,.5-.65,2,2,0,0,0,.17-.86,1.54,1.54,0,0,0-.29-.93,2.79,2.79,0,0,0-.78-.7,7.93,7.93,0,0,0-1.09-.58c-.41-.17-.83-.36-1.26-.56a12.78,12.78,0,0,1-1.26-.68,5.27,5.27,0,0,1-1.09-.91,4,4,0,0,1-.77-1.25,4.5,4.5,0,0,1-.3-1.73,4.57,4.57,0,0,1,.43-2A4.12,4.12,0,0,1,287.6,101a4.9,4.9,0,0,1,1.72-.87,7.62,7.62,0,0,1,3.25-.2,8.39,8.39,0,0,1,1.07.24,6.79,6.79,0,0,1,.88.33,1.88,1.88,0,0,1,.51.32l.17.21a.9.9,0,0,1,.07.23,1.55,1.55,0,0,1,.05.36c0,.14,0,.32,0,.54s0,.44,0,.61a2,2,0,0,1-.06.41.54.54,0,0,1-.12.24.32.32,0,0,1-.22.07,1.13,1.13,0,0,1-.44-.17c-.2-.12-.44-.24-.73-.38a6.52,6.52,0,0,0-1-.37,4.18,4.18,0,0,0-1.26-.17,2.86,2.86,0,0,0-.93.13,1.87,1.87,0,0,0-.67.36,1.45,1.45,0,0,0-.4.55,2,2,0,0,0-.13.69,1.58,1.58,0,0,0,.29.93,2.83,2.83,0,0,0,.79.69,7.2,7.2,0,0,0,1.11.57l1.27.57a12.94,12.94,0,0,1,1.27.68,4.91,4.91,0,0,1,1.11.91,4.38,4.38,0,0,1,.79,1.24A4.56,4.56,0,0,1,296.26,111.45Z"/><path class="cls-8" d="M314.77,115.06a3.84,3.84,0,0,1,.18.71.4.4,0,0,1-.1.39.77.77,0,0,1-.48.17q-.35,0-1,0l-1,0a2.06,2.06,0,0,1-.54-.08.46.46,0,0,1-.26-.15.9.9,0,0,1-.13-.26l-1.08-3.24h-6.05l-1,3.15a1,1,0,0,1-.14.29.54.54,0,0,1-.26.19,1.88,1.88,0,0,1-.51.09c-.22,0-.51,0-.86,0a7.18,7.18,0,0,1-.9,0,.73.73,0,0,1-.45-.18.49.49,0,0,1-.08-.41,3.53,3.53,0,0,1,.18-.69l5-14.3a1.2,1.2,0,0,1,.18-.34.6.6,0,0,1,.31-.2,3.48,3.48,0,0,1,.61-.09h2.19a4.34,4.34,0,0,1,.68.09.66.66,0,0,1,.34.21,1,1,0,0,1,.19.37Zm-7.4-11.81h0l-2.28,6.84h4.57Z"/><path class="cls-8" d="M328.86,101.52a5.28,5.28,0,0,1,0,.61,1.29,1.29,0,0,1-.1.41.51.51,0,0,1-.15.23l-.21.08h-4v13l-.08.23a.62.62,0,0,1-.27.16,3.11,3.11,0,0,1-.5.1,6.07,6.07,0,0,1-.8,0,6,6,0,0,1-.79,0,3.36,3.36,0,0,1-.5-.1.69.69,0,0,1-.27-.16l-.08-.23v-13h-4l-.21-.08a.51.51,0,0,1-.15-.23,1.63,1.63,0,0,1-.1-.41,5.28,5.28,0,0,1,0-.61,5.72,5.72,0,0,1,0-.64,1.85,1.85,0,0,1,.1-.42.47.47,0,0,1,.15-.22l.21-.07h11.35l.21.07a.47.47,0,0,1,.15.22,1.44,1.44,0,0,1,.1.42A5.72,5.72,0,0,1,328.86,101.52Z"/><path class="cls-8" d="M337.16,115.83l-.08.23a.57.57,0,0,1-.27.16,3.19,3.19,0,0,1-.49.1,6,6,0,0,1-.8,0,5.82,5.82,0,0,1-.79,0,3.53,3.53,0,0,1-.51-.1.58.58,0,0,1-.26-.16l-.08-.23V100.62l.08-.23a.57.57,0,0,1,.27-.16,3.65,3.65,0,0,1,.5-.1c.21,0,.47,0,.79,0s.59,0,.8,0a3.19,3.19,0,0,1,.49.1.57.57,0,0,1,.27.16l.08.23Z"/><path class="cls-8" d="M358.28,108a12,12,0,0,1-.5,3.59,7.34,7.34,0,0,1-1.48,2.68,6.5,6.5,0,0,1-2.44,1.68,8.87,8.87,0,0,1-3.35.58,10.11,10.11,0,0,1-3.28-.49,5.76,5.76,0,0,1-2.34-1.5,6.5,6.5,0,0,1-1.4-2.57,12.91,12.91,0,0,1-.47-3.68,11.6,11.6,0,0,1,.5-3.52,7.13,7.13,0,0,1,1.49-2.66,6.39,6.39,0,0,1,2.43-1.68,9,9,0,0,1,3.37-.59,10,10,0,0,1,3.23.49,5.7,5.7,0,0,1,2.34,1.49,6.58,6.58,0,0,1,1.42,2.55A12.28,12.28,0,0,1,358.28,108Zm-3.44.17a11.83,11.83,0,0,0-.2-2.31,5,5,0,0,0-.68-1.78,3.25,3.25,0,0,0-1.27-1.14,4.39,4.39,0,0,0-2-.41,4.09,4.09,0,0,0-2,.46,3.72,3.72,0,0,0-1.31,1.21,5,5,0,0,0-.7,1.78,10.5,10.5,0,0,0-.21,2.14,13.14,13.14,0,0,0,.2,2.38,5.19,5.19,0,0,0,.67,1.8,3.15,3.15,0,0,0,1.27,1.13,4.41,4.41,0,0,0,2,.4,4.13,4.13,0,0,0,2-.45,3.71,3.71,0,0,0,1.3-1.22,5.34,5.34,0,0,0,.71-1.8A11.73,11.73,0,0,0,354.84,108.21Z"/><path class="cls-8" d="M377.43,115.14a1.36,1.36,0,0,1-.1.51,1.14,1.14,0,0,1-.27.37,1.11,1.11,0,0,1-.4.22,1.84,1.84,0,0,1-.47.07H374.8a2.75,2.75,0,0,1-.75-.09,1.42,1.42,0,0,1-.59-.32,2.79,2.79,0,0,1-.52-.62c-.16-.26-.35-.6-.56-1l-4-7.54c-.23-.45-.47-.93-.71-1.45s-.45-1-.64-1.51h0c0,.6.06,1.19.08,1.79s0,1.2,0,1.83v8.43l-.07.23a.47.47,0,0,1-.23.16,1.94,1.94,0,0,1-.46.11,4.9,4.9,0,0,1-.73,0,4.84,4.84,0,0,1-.72,0,1.63,1.63,0,0,1-.45-.11.47.47,0,0,1-.23-.16l-.06-.23V101.34a1.13,1.13,0,0,1,.34-.88,1.28,1.28,0,0,1,.84-.29h1.76a3.66,3.66,0,0,1,.8.08,1.81,1.81,0,0,1,.58.27,1.84,1.84,0,0,1,.47.52,5.84,5.84,0,0,1,.46.81l3.14,5.89.54,1.05c.18.35.36.69.52,1s.33.68.49,1l.46,1h0c0-.58,0-1.19-.06-1.82s0-1.23,0-1.81v-7.55l.08-.23a.55.55,0,0,1,.25-.17,1.63,1.63,0,0,1,.46-.11c.19,0,.44,0,.73,0a6.88,6.88,0,0,1,.71,0,1.4,1.4,0,0,1,.45.11.46.46,0,0,1,.21.17l.07.23Z"/><path class="cls-8" d="M393.6,111.45a5,5,0,0,1-.47,2.23,4.7,4.7,0,0,1-1.29,1.6,5.44,5.44,0,0,1-1.89,1,7.88,7.88,0,0,1-2.32.33,8.62,8.62,0,0,1-2.81-.47,5.86,5.86,0,0,1-.92-.4,2.32,2.32,0,0,1-.52-.38.91.91,0,0,1-.24-.46,5,5,0,0,1-.06-.88c0-.26,0-.47,0-.65a2,2,0,0,1,.08-.42.46.46,0,0,1,.15-.23l.22-.07a1.06,1.06,0,0,1,.49.2,9,9,0,0,0,.82.46,6.46,6.46,0,0,0,1.19.45,5.49,5.49,0,0,0,1.6.21,3.91,3.91,0,0,0,1.07-.14,2.42,2.42,0,0,0,.8-.41,1.6,1.6,0,0,0,.5-.65,2,2,0,0,0,.18-.86,1.48,1.48,0,0,0-.3-.93,2.79,2.79,0,0,0-.78-.7,7.39,7.39,0,0,0-1.09-.58l-1.26-.56a11.6,11.6,0,0,1-1.25-.68,5,5,0,0,1-1.09-.91,4.27,4.27,0,0,1-.78-1.25,4.5,4.5,0,0,1-.3-1.73,4.57,4.57,0,0,1,.43-2,4.14,4.14,0,0,1,1.16-1.45,4.81,4.81,0,0,1,1.72-.87,7.54,7.54,0,0,1,2.09-.29,7.33,7.33,0,0,1,1.15.09,8,8,0,0,1,1.07.24,6.28,6.28,0,0,1,.88.33,2.18,2.18,0,0,1,.52.32l.16.21a.87.87,0,0,1,.08.23,2.6,2.6,0,0,1,0,.36c0,.14,0,.32,0,.54s0,.44,0,.61a2.86,2.86,0,0,1-.07.41.54.54,0,0,1-.12.24.32.32,0,0,1-.22.07,1.13,1.13,0,0,1-.44-.17,7.88,7.88,0,0,0-.73-.38,6.52,6.52,0,0,0-1-.37,4.18,4.18,0,0,0-1.26-.17,2.94,2.94,0,0,0-.93.13,1.87,1.87,0,0,0-.67.36,1.42,1.42,0,0,0-.39.55,1.8,1.8,0,0,0-.13.69,1.51,1.51,0,0,0,.29.93,2.65,2.65,0,0,0,.78.69,6.89,6.89,0,0,0,1.12.57l1.27.57a14.18,14.18,0,0,1,1.27.68,5.08,5.08,0,0,1,1.1.91,4.17,4.17,0,0,1,.79,1.24A4.36,4.36,0,0,1,393.6,111.45Z"/></svg>