<?xml version="1.0" encoding="UTF-8"?><svg id="Layer_1" xmlns="http://www.w3.org/2000/svg" viewBox="0 0 504.83 224.31"><defs><style>.cls-1{fill:#ce4725;}.cls-1,.cls-2,.cls-3,.cls-4,.cls-5,.cls-6,.cls-7,.cls-8{stroke-width:0px;}.cls-2{fill:#b0d235;}.cls-3{fill:#231f20;}.cls-4{fill:#006d9b;}.cls-5{fill:#f26522;}.cls-6{fill:#69841d;}.cls-7{fill:#fff;}.cls-8{fill:#004161;}</style></defs><path class="cls-3" d="M0,112.17C0,50.23,50.21,0,112.16,0s112.16,50.23,112.16,112.17-50.22,112.14-112.16,112.14S0,174.11,0,112.17Z"/><path class="cls-7" d="M112.05,10.51C55.71,10.51,10.04,56.19,10.04,112.52s45.66,102.01,102.01,102.01,102.01-45.68,102.01-102.01S168.39,10.51,112.05,10.51Z"/><path class="cls-2" d="M109.71,200.13v-44.65c-12.17.07-24.14.81-35.79,2.23,7.44,24.31,20.62,40.89,35.79,42.42Z"/><path class="cls-1" d="M93.93,25.62c-22.36,4.66-41.59,17.84-54.27,35.94,9.47,2.4,19.21,4.31,29.17,5.71,5.52-18.84,14.4-33.65,25.1-41.65Z"/><path class="cls-1" d="M72.57,153.17c12.09-1.53,24.51-2.32,37.13-2.36v-36.37h-42.23c.18,13.94,1.99,27.1,5.1,38.73Z"/><path class="cls-2" d="M73.44,67.92c11.81,1.46,23.92,2.22,36.27,2.28V23.99c-15.5,1.55-28.92,18.8-36.27,43.93Z"/><path class="cls-1" d="M161.17,109.75h38.97c-.41-16.24-5.24-31.37-13.32-44.31-9.9,2.63-20.1,4.7-30.55,6.23,2.97,11.58,4.72,24.46,4.9,38.08Z"/><path class="cls-8" d="M67.64,71.84c-10.49-1.5-20.73-3.53-30.67-6.13-7.98,12.87-12.75,27.91-13.16,44.04h38.97c.18-13.56,1.91-26.37,4.85-37.92Z"/><path class="cls-6" d="M62.79,114.44H23.82c.45,16.66,5.52,32.17,14,45.31,9.8-2.52,19.89-4.49,30.21-5.96-3.19-11.89-5.05-25.23-5.24-39.35Z"/><path class="cls-4" d="M69.32,158.34c-9.77,1.36-19.33,3.21-28.64,5.53,12.66,17.38,31.44,30.02,53.2,34.57-10.39-7.79-19.02-22.01-24.56-40.11Z"/><path class="cls-4" d="M67.47,109.75h42.24v-34.85c-12.77-.08-25.31-.86-37.51-2.42-2.88,11.27-4.55,23.89-4.72,37.27Z"/><path class="cls-2" d="M155.89,153.96c10.29,1.5,20.33,3.51,30.11,6.06,8.58-13.2,13.7-28.81,14.14-45.59h-38.96c-.19,14.19-2.07,27.59-5.29,39.52Z"/><path class="cls-5" d="M150,157.86c-11.59-1.47-23.48-2.24-35.61-2.36v44.61c15.09-1.61,28.18-18.12,35.61-42.25Z"/><path class="cls-8" d="M130.08,198.44c21.66-4.53,40.35-17.07,53-34.31-9.25-2.36-18.76-4.23-28.5-5.63-5.53,18.01-14.14,32.18-24.5,39.94Z"/><path class="cls-6" d="M155.07,67.12c9.92-1.45,19.61-3.38,29.03-5.81-12.67-17.97-31.82-31.04-54.08-35.69,10.66,7.97,19.53,22.73,25.05,41.5Z"/><path class="cls-4" d="M156.48,114.44h-42.09v36.38c12.58.11,24.93.94,36.96,2.49,3.13-11.65,4.96-24.86,5.14-38.87Z"/><path class="cls-4" d="M114.39,24v46.19c12.29-.11,24.34-.89,36.09-2.41-7.34-24.96-20.67-42.12-36.09-43.77Z"/><path class="cls-6" d="M151.73,72.33c-12.14,1.59-24.62,2.43-37.34,2.54v34.89h42.09c-.17-13.43-1.86-26.12-4.76-37.43Z"/><path class="cls-3" d="M250.93,70.2c2.38,1.37,5.93,2.56,9.67,2.56,4.7,0,7.33-2.2,7.33-5.48,0-3.02-2.02-4.82-7.14-6.66-6.59-2.37-10.81-5.88-10.81-11.65,0-6.54,5.46-11.53,14.15-11.53,4.34,0,7.55.94,9.64,2.02l-1.8,5.88c-1.42-.76-4.22-1.89-7.96-1.89-4.65,0-6.66,2.51-6.66,4.82,0,3.09,2.32,4.52,7.67,6.59,6.95,2.63,10.35,6.14,10.35,11.91,0,6.42-4.87,12.06-15.22,12.06-4.21,0-8.62-1.25-10.82-2.56l1.62-6.06Z"/><path class="cls-3" d="M302.13,71.2c0,2.63.11,5.18.41,6.95h-6.61l-.48-3.2h-.17c-1.79,2.26-4.81,3.86-8.55,3.86-5.83,0-9.1-4.23-9.1-8.62,0-7.32,6.48-11,17.19-10.94v-.48c0-1.91-.78-5.06-5.89-5.06-2.86,0-5.82.89-7.79,2.14l-1.43-4.75c2.14-1.31,5.89-2.55,10.46-2.55,9.27,0,11.95,5.89,11.95,12.2v10.45ZM294.99,64.01c-5.17-.12-10.11,1-10.11,5.41,0,2.85,1.85,4.16,4.16,4.16,2.93,0,5.06-1.91,5.7-3.98.18-.53.24-1.12.24-1.6v-3.98Z"/><path class="cls-3" d="M307.14,71.45c1.66,1.01,4.8,2.08,7.42,2.08,3.21,0,4.64-1.31,4.64-3.2s-1.19-2.98-4.75-4.23c-5.65-1.95-8.02-5.05-7.97-8.43,0-5.12,4.22-9.11,10.94-9.11,3.2,0,6,.83,7.66,1.72l-1.43,5.18c-1.25-.72-3.56-1.67-6.12-1.67s-4.04,1.26-4.04,3.03,1.37,2.74,5.06,4.05c5.22,1.91,7.66,4.58,7.73,8.86,0,5.23-4.11,9.09-11.79,9.09-3.51,0-6.66-.89-8.79-2.08l1.43-5.29Z"/><path class="cls-3" d="M337.23,61.93h.1c.71-1.14,1.54-2.38,2.32-3.39l7.02-9.34h8.8l-10.71,11.83,12.25,17.11h-8.98l-8.31-12.77-2.49,2.91v9.86h-7.33v-42.21h7.33v25.98Z"/><path class="cls-3" d="M380.92,71.2c0,2.63.13,5.18.44,6.95h-6.61l-.48-3.2h-.18c-1.77,2.26-4.81,3.86-8.55,3.86-5.83,0-9.1-4.23-9.1-8.62,0-7.32,6.48-11,17.19-10.94v-.48c0-1.91-.78-5.06-5.9-5.06-2.84,0-5.83.89-7.79,2.14l-1.42-4.75c2.13-1.31,5.89-2.55,10.46-2.55,9.28,0,11.95,5.89,11.95,12.2v10.45ZM373.79,64.01c-5.16-.12-10.1,1-10.1,5.41,0,2.85,1.84,4.16,4.15,4.16,2.92,0,5.05-1.91,5.71-3.98.18-.53.24-1.12.24-1.6v-3.98Z"/><path class="cls-3" d="M394.32,41.78v7.43h6.96v5.46h-6.96v12.79c0,3.51.94,5.35,3.74,5.35,1.37,0,2.02-.12,2.86-.36l.12,5.59c-1.08.42-2.98.77-5.29.77-2.68,0-4.93-.96-6.3-2.43-1.55-1.66-2.26-4.29-2.26-8.09v-13.62h-4.17v-5.46h4.17v-5.35l7.13-2.08Z"/><path class="cls-3" d="M431.61,63.43c0,10.64-7.49,15.39-14.87,15.39-8.2,0-14.51-5.65-14.51-14.92s6.23-15.34,14.99-15.34,14.39,6.06,14.39,14.87ZM409.79,63.72c0,5.58,2.74,9.8,7.2,9.8,4.16,0,7.08-4.09,7.08-9.93,0-4.52-2.03-9.69-7.02-9.69s-7.26,5-7.26,9.81Z"/><path class="cls-3" d="M462.77,63.43c0,10.64-7.49,15.39-14.86,15.39-8.2,0-14.51-5.65-14.51-14.92s6.25-15.34,14.98-15.34,14.39,6.06,14.39,14.87ZM440.95,63.72c0,5.58,2.73,9.8,7.19,9.8,4.17,0,7.08-4.09,7.08-9.93,0-4.52-2.02-9.69-7.02-9.69s-7.24,5-7.24,9.81Z"/><path class="cls-3" d="M466.41,57.83c0-3.33-.05-6.13-.23-8.62h6.42l.35,4.34h.17c1.25-2.26,4.4-5,9.23-5s10.28,3.27,10.28,12.43v17.17h-7.31v-16.34c0-4.15-1.55-7.31-5.54-7.31-2.91,0-4.94,2.08-5.7,4.28-.24.65-.3,1.54-.3,2.38v16.99h-7.38v-20.33Z"/><path class="cls-3" d="M286.65,113.7c0,13.43-8.15,21.1-19.2,21.1s-18.43-8.62-18.43-20.39,7.72-21,19.03-21,18.6,8.87,18.6,20.29ZM256.74,114.29c0,8.14,4.1,14.68,11.12,14.68s11.06-6.6,11.06-14.97c0-7.55-3.75-14.74-11.06-14.74s-11.12,6.77-11.12,15.04Z"/><path class="cls-3" d="M290.47,114.82c0-3.8-.11-6.9-.24-9.63h6.42l.36,4.46h.13c2.14-3.26,5.52-5.12,9.92-5.12,6.67,0,12.19,5.71,12.19,14.75,0,10.46-6.6,15.51-13.2,15.51-3.64,0-6.67-1.54-8.16-3.86h-.11v14.98h-7.32v-31.09ZM297.78,122.01c0,.71.06,1.37.24,2.02.7,2.97,3.32,5.11,6.41,5.11,4.64,0,7.39-3.86,7.39-9.57,0-5.11-2.5-9.28-7.2-9.28-3.04,0-5.84,2.2-6.55,5.4-.17.6-.29,1.26-.29,1.85v4.46Z"/><path class="cls-3" d="M328.06,121.72c.18,5.23,4.27,7.49,8.92,7.49,3.38,0,5.82-.48,8.01-1.31l1.08,5.06c-2.5,1.02-5.94,1.83-10.11,1.83-9.4,0-14.92-5.83-14.92-14.68,0-8.03,4.87-15.58,14.15-15.58s12.48,7.74,12.48,14.09c0,1.37-.12,2.43-.24,3.09h-19.37ZM340.79,116.61c.06-2.68-1.13-7.08-6.02-7.08-4.51,0-6.42,4.11-6.71,7.08h12.73Z"/><path class="cls-3" d="M351.2,113.81c0-3.32-.07-6.12-.24-8.62h6.41l.37,4.34h.17c1.26-2.26,4.39-5,9.21-5,5.06,0,10.29,3.27,10.29,12.43v17.18h-7.32v-16.35c0-4.15-1.53-7.31-5.52-7.31-2.91,0-4.93,2.08-5.71,4.28-.24.65-.3,1.54-.3,2.38v17h-7.37v-20.34Z"/><path class="cls-3" d="M388.31,94.61c3.21-.54,7.32-.83,11.65-.83,7.5,0,12.66,1.54,16.36,4.64,3.86,3.14,6.23,7.9,6.23,14.74s-2.43,12.48-6.23,15.92c-3.98,3.63-10.35,5.48-18.14,5.48-4.28,0-7.49-.24-9.87-.54v-39.42ZM395.63,128.56c1.02.17,2.55.17,4.05.17,9.51.07,15.16-5.17,15.16-15.34.06-8.86-5.05-13.91-14.22-13.91-2.32,0-3.97.17-4.99.42v28.66Z"/><path class="cls-3" d="M453.79,119.41c0,10.63-7.5,15.39-14.87,15.39-8.2,0-14.49-5.65-14.49-14.93s6.23-15.34,14.97-15.34,14.39,6.06,14.39,14.87ZM431.97,119.7c0,5.58,2.73,9.81,7.19,9.81,4.16,0,7.07-4.11,7.07-9.93,0-4.53-2.02-9.69-7.02-9.69s-7.25,5-7.25,9.82Z"/><path class="cls-3" d="M484.95,119.41c0,10.63-7.49,15.39-14.86,15.39-8.21,0-14.51-5.65-14.51-14.93s6.25-15.34,14.98-15.34,14.39,6.06,14.39,14.87ZM463.14,119.7c0,5.58,2.73,9.81,7.18,9.81,4.17,0,7.08-4.11,7.08-9.93,0-4.53-2.02-9.69-7.02-9.69s-7.25,5-7.25,9.82Z"/><path class="cls-3" d="M488.6,114.52c0-3.92-.05-6.71-.24-9.33h6.37l.23,5.53h.24c1.43-4.09,4.81-6.18,7.91-6.18.71,0,1.13.06,1.72.18v6.89c-.59-.12-1.25-.23-2.15-.23-3.5,0-5.89,2.26-6.54,5.53-.12.64-.23,1.43-.23,2.26v14.99h-7.32v-19.63Z"/><path class="cls-3" d="M250.93,182.16c2.38,1.37,5.93,2.55,9.67,2.55,4.7,0,7.33-2.2,7.33-5.48,0-3.02-2.02-4.82-7.14-6.65-6.59-2.38-10.81-5.89-10.81-11.66,0-6.54,5.46-11.53,14.15-11.53,4.34,0,7.55.94,9.64,2.01l-1.8,5.89c-1.42-.79-4.22-1.91-7.96-1.91-4.65,0-6.66,2.51-6.66,4.82,0,3.09,2.32,4.52,7.67,6.59,6.95,2.63,10.35,6.14,10.35,11.9,0,6.42-4.87,12.07-15.22,12.07-4.21,0-8.62-1.25-10.82-2.55l1.62-6.06Z"/><path class="cls-3" d="M307.17,175.39c0,10.63-7.49,15.39-14.87,15.39-8.21,0-14.5-5.65-14.5-14.93s6.25-15.34,14.97-15.34,14.4,6.06,14.4,14.88ZM285.35,175.68c0,5.58,2.75,9.81,7.21,9.81,4.15,0,7.06-4.11,7.06-9.93,0-4.53-2.02-9.7-7-9.7s-7.27,5-7.27,9.82Z"/><path class="cls-3" d="M332.1,189.23c-1.53.71-4.57,1.54-8.2,1.54-9.03,0-14.92-5.83-14.92-14.81s5.94-15.46,16.11-15.46c2.68,0,5.42.6,7.08,1.37l-1.31,5.47c-1.19-.55-2.91-1.13-5.52-1.13-5.58,0-8.92,4.11-8.86,9.4,0,5.94,3.87,9.32,8.86,9.32,2.55,0,4.34-.52,5.76-1.12l1.01,5.42Z"/><path class="cls-3" d="M342.93,153.08c0,2.2-1.61,3.92-4.18,3.92-2.42,0-4.03-1.73-4.03-3.92s1.66-3.98,4.1-3.98,4.05,1.72,4.11,3.98ZM335.14,190.13v-28.95h7.37v28.95h-7.37Z"/><path class="cls-3" d="M353.16,177.7c.17,5.23,4.27,7.49,8.92,7.49,3.39,0,5.83-.47,8.02-1.31l1.07,5.06c-2.49,1-5.94,1.84-10.11,1.84-9.4,0-14.92-5.83-14.92-14.68,0-8.03,4.88-15.58,14.16-15.58s12.49,7.72,12.49,14.09c0,1.37-.12,2.43-.24,3.1h-19.37ZM365.88,172.59c.06-2.68-1.13-7.08-6.01-7.08-4.52,0-6.42,4.11-6.71,7.08h12.72Z"/><path class="cls-3" d="M384.68,153.74v7.43h6.95v5.46h-6.95v12.79c0,3.51.95,5.35,3.75,5.35,1.35,0,2.01-.12,2.86-.35l.11,5.59c-1.08.41-2.97.77-5.29.77-2.69,0-4.93-.96-6.3-2.43-1.55-1.66-2.27-4.29-2.27-8.09v-13.62h-4.16v-5.46h4.16v-5.35l7.14-2.08Z"/><path class="cls-3" d="M399.79,161.17l5.23,15.51c.6,1.78,1.19,3.99,1.61,5.66h.17c.48-1.67,1.02-3.82,1.55-5.71l4.52-15.46h7.84l-7.25,19.74c-3.99,10.81-6.66,15.63-10.11,18.6-2.86,2.56-5.82,3.51-7.67,3.75l-1.65-6.19c1.24-.29,2.77-.95,4.27-2.03,1.37-.89,2.98-2.62,3.99-4.57.3-.54.48-.95.48-1.31,0-.29-.07-.72-.43-1.43l-10.59-26.57h8.04Z"/></svg>