<?xml version="1.0" encoding="UTF-8"?><svg id="Layer_1" xmlns="http://www.w3.org/2000/svg" viewBox="0 0 309.67 36"><defs><style>.cls-1{fill:#ed1c24;}.cls-1,.cls-2{stroke-width:0px;}.cls-2{fill:#231f20;}</style></defs><rect class="cls-2" x="179.16" width="1" height="36"/><path class="cls-2" d="M91.8,2.64h5.42v1.19h-4.05v2.06h3.55v1.12h-3.55v3.49h-1.38V2.64Z"/><path class="cls-2" d="M98.18,2.64h1.25v1.19h-1.25v-1.19ZM98.18,4.81h1.25v5.69h-1.25v-5.69Z"/><path class="cls-2" d="M100.8,4.81h1.19v.84l.02.02c.37-.63,1.02-1.01,1.77-1.01,1.23,0,2.01.66,2.01,1.94v3.91h-1.25v-3.58c-.02-.89-.37-1.28-1.11-1.28-.84,0-1.38.66-1.38,1.5v3.36h-1.25v-5.69Z"/><path class="cls-2" d="M111.87,9.23c0,.31.07.43.3.43.08,0,.18,0,.31-.02v.87c-.19.07-.58.14-.79.14-.51,0-.87-.18-.97-.69-.5.48-1.3.69-1.97.69-1.02,0-1.95-.55-1.95-1.66,0-1.42,1.13-1.65,2.19-1.77.9-.17,1.71-.07,1.71-.8,0-.65-.67-.77-1.18-.77-.7,0-1.2.29-1.25.9h-1.25c.09-1.46,1.33-1.89,2.59-1.89,1.11,0,2.28.45,2.28,1.65v2.93ZM110.62,7.65c-.38.25-.99.24-1.54.34-.54.09-1.02.29-1.02.95,0,.56.71.73,1.15.73.55,0,1.41-.29,1.41-1.08v-.94Z"/><path class="cls-2" d="M113.23,4.81h1.19v.84l.02.02c.37-.63,1.02-1.01,1.77-1.01,1.23,0,2.01.66,2.01,1.94v3.91h-1.25v-3.58c-.02-.89-.37-1.28-1.11-1.28-.84,0-1.38.66-1.38,1.5v3.36h-1.25v-5.69Z"/><path class="cls-2" d="M123.38,6.71c-.1-.69-.6-1.07-1.3-1.07-.65,0-1.56.34-1.56,2.07,0,.95.42,1.95,1.51,1.95.73,0,1.23-.48,1.35-1.3h1.25c-.23,1.47-1.14,2.29-2.61,2.29-1.78,0-2.76-1.27-2.76-2.94s.94-3.06,2.81-3.06c1.32,0,2.44.66,2.56,2.06h-1.25Z"/><path class="cls-2" d="M126.64,7.98c0,.89.48,1.68,1.53,1.68.73,0,1.17-.32,1.39-.95h1.19c-.27,1.24-1.33,1.94-2.57,1.94-1.78,0-2.78-1.24-2.78-2.99,0-1.62,1.06-3,2.75-3,1.79,0,2.89,1.62,2.68,3.32h-4.18ZM129.56,7.15c-.04-.79-.58-1.51-1.43-1.51s-1.46.66-1.5,1.51h2.93ZM128.22,2.46h1.48l-1.56,1.57h-.91l.99-1.57Z"/><path class="cls-2" d="M134.86,4.81h1.19v.77h.02c.35-.65,1.03-.92,1.76-.92,1.79,0,2.66,1.36,2.66,3.03,0,1.53-.77,2.97-2.45,2.97-.73,0-1.51-.26-1.9-.89h-.02v2.84h-1.25v-7.79ZM137.67,5.65c-1.06,0-1.6.8-1.6,2.01,0,1.14.58,2,1.6,2,1.14,0,1.57-1.01,1.57-2s-.54-2.01-1.57-2.01Z"/><path class="cls-2" d="M146.31,9.23c0,.31.07.43.3.43.08,0,.18,0,.31-.02v.87c-.19.07-.58.14-.79.14-.51,0-.87-.18-.97-.69-.5.48-1.3.69-1.97.69-1.02,0-1.95-.55-1.95-1.66,0-1.42,1.13-1.65,2.19-1.77.9-.17,1.71-.07,1.71-.8,0-.65-.67-.77-1.18-.77-.7,0-1.2.29-1.25.9h-1.25c.09-1.46,1.33-1.89,2.59-1.89,1.11,0,2.28.45,2.28,1.65v2.93ZM145.06,7.65c-.38.25-.99.24-1.54.34-.54.09-1.02.29-1.02.95,0,.56.71.73,1.15.73.55,0,1.41-.29,1.41-1.08v-.94Z"/><path class="cls-2" d="M147.67,4.81h1.18v1.1h.02c.14-.6.89-1.25,1.66-1.25.29,0,.36.02.47.03v1.21c-.18-.02-.36-.06-.54-.06-.86,0-1.54.69-1.54,1.95v2.71h-1.25v-5.69Z"/><path class="cls-2" d="M154.63,2.64h1.25v7.85h-1.25V2.64Z"/><path class="cls-2" d="M158.23,7.98c0,.89.48,1.68,1.53,1.68.73,0,1.17-.32,1.39-.95h1.19c-.28,1.24-1.33,1.94-2.57,1.94-1.78,0-2.78-1.24-2.78-2.99,0-1.62,1.06-3,2.75-3,1.79,0,2.89,1.62,2.68,3.32h-4.18ZM161.15,7.15c-.04-.79-.58-1.51-1.43-1.51s-1.46.66-1.5,1.51h2.93Z"/><path class="cls-2" d="M95.28,21.2c0,1.71-1,2.55-2.79,2.55-1.14,0-2.43-.44-2.54-1.77h1.25c.15.71.73.84,1.36.84,1.01,0,1.46-.52,1.46-1.45v-.87h-.02c-.35.63-1,1-1.71,1-1.8,0-2.55-1.36-2.55-2.99,0-1.53.96-2.85,2.57-2.85.71,0,1.36.3,1.68.93h.02v-.78h1.25v5.39ZM94.02,18.53c0-.98-.44-1.88-1.53-1.88s-1.5,1.03-1.5,1.98.45,1.88,1.5,1.88c1.11,0,1.53-1.01,1.53-1.98Z"/><path class="cls-2" d="M96.28,18.65c0-1.74,1.05-2.99,2.87-2.99s2.87,1.25,2.87,2.99-1.04,3-2.87,3-2.87-1.25-2.87-3ZM100.77,18.65c0-.98-.5-2-1.62-2s-1.62,1.02-1.62,2,.5,2.01,1.62,2.01,1.62-1.02,1.62-2.01Z"/><path class="cls-2" d="M108.06,21.5h-1.23v-.79h-.02c-.31.57-.99.95-1.62.95-1.48,0-2.12-.75-2.12-2.23v-3.61h1.25v3.49c0,1,.41,1.36,1.09,1.36,1.04,0,1.4-.67,1.4-1.55v-3.3h1.25v5.69Z"/><path class="cls-2" d="M108.82,15.81h1.36l1.44,4.37h.02l1.39-4.37h1.3l-2.04,5.69h-1.41l-2.07-5.69Z"/><path class="cls-2" d="M116.07,18.98c0,.89.48,1.68,1.53,1.68.73,0,1.17-.32,1.39-.95h1.19c-.27,1.24-1.33,1.94-2.57,1.94-1.78,0-2.78-1.24-2.78-2.99,0-1.62,1.06-3,2.75-3,1.79,0,2.89,1.62,2.68,3.32h-4.18ZM118.99,18.15c-.04-.79-.58-1.51-1.43-1.51s-1.46.66-1.5,1.51h2.93Z"/><path class="cls-2" d="M121.2,15.81h1.18v1.1h.02c.14-.61.89-1.25,1.66-1.25.29,0,.36.02.47.03v1.21c-.18-.02-.36-.06-.54-.06-.86,0-1.54.69-1.54,1.95v2.71h-1.25v-5.69Z"/><path class="cls-2" d="M125.27,15.81h1.19v.84l.02.02c.37-.63,1.02-1.01,1.77-1.01,1.23,0,2.01.66,2.01,1.94v3.91h-1.25v-3.58c-.02-.89-.37-1.28-1.11-1.28-.84,0-1.38.66-1.38,1.5v3.36h-1.25v-5.69Z"/><path class="cls-2" d="M132.56,18.98c0,.89.48,1.68,1.53,1.68.73,0,1.17-.32,1.39-.95h1.19c-.27,1.24-1.33,1.94-2.57,1.94-1.78,0-2.78-1.24-2.78-2.99,0-1.62,1.06-3,2.75-3,1.79,0,2.89,1.62,2.68,3.32h-4.18ZM135.49,18.15c-.04-.79-.58-1.51-1.43-1.51s-1.46.66-1.5,1.51h2.93Z"/><path class="cls-2" d="M137.7,15.81h1.19v.79h.03c.37-.56.85-.95,1.75-.95.69,0,1.34.3,1.6.95.42-.58.96-.95,1.78-.95,1.2,0,1.9.53,1.9,1.91v3.93h-1.25v-3.32c0-.9-.06-1.53-1.03-1.53-.85,0-1.21.56-1.21,1.52v3.33h-1.25v-3.65c0-.78-.24-1.2-1-1.2-.65,0-1.24.53-1.24,1.47v3.38h-1.25v-5.69Z"/><path class="cls-2" d="M148.25,18.98c0,.89.48,1.68,1.53,1.68.73,0,1.17-.32,1.39-.95h1.19c-.27,1.24-1.33,1.94-2.57,1.94-1.78,0-2.78-1.24-2.78-2.99,0-1.62,1.06-3,2.75-3,1.79,0,2.89,1.62,2.68,3.32h-4.18ZM151.18,18.15c-.04-.79-.58-1.51-1.43-1.51s-1.46.66-1.5,1.51h2.93Z"/><path class="cls-2" d="M153.39,15.81h1.19v.84l.02.02c.37-.63,1.02-1.01,1.77-1.01,1.23,0,2.01.66,2.01,1.94v3.91h-1.25v-3.58c-.02-.89-.37-1.28-1.11-1.28-.84,0-1.38.66-1.38,1.5v3.36h-1.25v-5.69Z"/><path class="cls-2" d="M159.13,15.81h.95v-1.7h1.25v1.7h1.13v.94h-1.13v3.04c0,.52.04.78.61.78.18,0,.35,0,.53-.04v.97c-.27.02-.54.07-.81.07-1.31,0-1.55-.51-1.57-1.45v-3.36h-.95v-.94Z"/><path class="cls-2" d="M113.3,32.5h-1.19v-.77h-.02c-.33.65-1.04.92-1.76.92-1.79,0-2.66-1.33-2.66-3.04,0-2.06,1.22-2.96,2.46-2.96.71,0,1.51.26,1.89.89h.02v-2.9h1.25v7.86ZM110.5,31.66c1.12,0,1.6-1.02,1.6-2.01,0-1.25-.6-2-1.57-2-1.18,0-1.6,1.04-1.6,2.07s.48,1.95,1.57,1.95Z"/><path class="cls-2" d="M119.66,32.5h-1.23v-.79h-.02c-.31.57-.99.95-1.62.95-1.48,0-2.12-.75-2.12-2.23v-3.61h1.25v3.49c0,1,.41,1.36,1.09,1.36,1.04,0,1.4-.67,1.4-1.55v-3.3h1.25v5.69Z"/><path class="cls-2" d="M129.52,27.14c-.23-.9-.81-1.56-1.96-1.56-1.68,0-2.39,1.49-2.39,2.99s.7,2.99,2.39,2.99c1.22,0,1.89-.91,2-2.06h1.34c-.11,1.88-1.44,3.18-3.34,3.18-2.35,0-3.76-1.87-3.76-4.12s1.41-4.11,3.76-4.11c1.77.01,3.17.99,3.33,2.68h-1.38Z"/><path class="cls-2" d="M136.74,31.23c0,.31.07.43.3.43.08,0,.18,0,.31-.02v.87c-.19.07-.58.14-.79.14-.51,0-.87-.18-.97-.69-.5.48-1.3.69-1.97.69-1.02,0-1.95-.55-1.95-1.66,0-1.42,1.13-1.65,2.19-1.77.9-.16,1.71-.07,1.71-.8,0-.65-.67-.77-1.18-.77-.7,0-1.2.29-1.25.9h-1.25c.09-1.46,1.33-1.89,2.59-1.89,1.11,0,2.28.45,2.28,1.65v2.93ZM135.49,29.65c-.38.25-.99.24-1.54.34-.54.09-1.02.29-1.02.95,0,.56.71.73,1.15.73.55,0,1.41-.29,1.41-1.08v-.94Z"/><path class="cls-2" d="M138.1,26.81h1.19v.84l.02.02c.37-.63,1.02-1.01,1.77-1.01,1.23,0,2.01.66,2.01,1.94v3.91h-1.25v-3.58c-.02-.89-.37-1.28-1.11-1.28-.84,0-1.38.66-1.38,1.5v3.36h-1.25v-5.69Z"/><path class="cls-2" d="M149.17,31.23c0,.31.07.43.3.43.08,0,.18,0,.31-.02v.87c-.19.07-.58.14-.79.14-.51,0-.87-.18-.97-.69-.5.48-1.3.69-1.97.69-1.02,0-1.95-.55-1.95-1.66,0-1.42,1.13-1.65,2.19-1.77.9-.16,1.71-.07,1.71-.8,0-.65-.67-.77-1.18-.77-.7,0-1.2.29-1.25.9h-1.25c.09-1.46,1.33-1.89,2.59-1.89,1.11,0,2.28.45,2.28,1.65v2.93ZM147.92,29.65c-.38.25-.99.24-1.54.34-.54.09-1.02.29-1.02.95,0,.56.71.73,1.15.73.55,0,1.41-.29,1.41-1.08v-.94Z"/><path class="cls-2" d="M155.88,32.5h-1.19v-.77h-.02c-.33.65-1.04.92-1.76.92-1.79,0-2.66-1.33-2.66-3.04,0-2.06,1.22-2.96,2.46-2.96.71,0,1.51.26,1.89.89h.02v-2.9h1.25v7.86ZM153.08,31.66c1.12,0,1.6-1.02,1.6-2.01,0-1.25-.61-2-1.57-2-1.18,0-1.6,1.04-1.6,2.07s.48,1.95,1.57,1.95Z"/><path class="cls-2" d="M162.01,31.23c0,.31.07.43.3.43.08,0,.18,0,.31-.02v.87c-.19.07-.58.14-.79.14-.51,0-.87-.18-.97-.69-.5.48-1.3.69-1.97.69-1.02,0-1.95-.55-1.95-1.66,0-1.42,1.13-1.65,2.19-1.77.9-.16,1.71-.07,1.71-.8,0-.65-.67-.77-1.18-.77-.7,0-1.2.29-1.25.9h-1.25c.09-1.46,1.33-1.89,2.59-1.89,1.11,0,2.28.45,2.28,1.65v2.93ZM160.76,29.65c-.38.25-.99.24-1.54.34-.54.09-1.02.29-1.02.95,0,.56.71.73,1.15.73.55,0,1.41-.29,1.41-1.08v-.94Z"/><path class="cls-2" d="M0,2.64h5.42v1.19H1.38v2.06h3.55v1.12H1.38v3.49H0V2.64Z"/><path class="cls-2" d="M11.34,10.5h-1.23v-.79h-.02c-.31.57-.99.95-1.62.95-1.48,0-2.12-.75-2.12-2.23v-3.61h1.25v3.49c0,1,.41,1.36,1.09,1.36,1.05,0,1.4-.67,1.4-1.55v-3.3h1.25v5.69Z"/><path class="cls-2" d="M12.66,4.81h1.19v.84l.02.02c.37-.63,1.02-1.01,1.77-1.01,1.23,0,2.01.66,2.01,1.94v3.91h-1.25v-3.58c-.02-.89-.37-1.28-1.11-1.28-.84,0-1.38.66-1.38,1.5v3.36h-1.25v-5.69Z"/><path class="cls-2" d="M24.33,10.5h-1.19v-.77h-.02c-.33.65-1.05.92-1.76.92-1.79,0-2.66-1.33-2.66-3.04,0-2.06,1.22-2.96,2.46-2.96.71,0,1.51.26,1.89.89h.02v-2.9h1.25v7.85ZM21.53,9.66c1.12,0,1.6-1.02,1.6-2.01,0-1.25-.6-2-1.57-2-1.18,0-1.6,1.04-1.6,2.07s.48,1.95,1.57,1.95Z"/><path class="cls-2" d="M26.67,7.98c0,.89.48,1.68,1.53,1.68.73,0,1.17-.32,1.39-.95h1.19c-.27,1.24-1.33,1.94-2.57,1.94-1.78,0-2.78-1.24-2.78-2.99,0-1.62,1.06-3,2.75-3,1.79,0,2.89,1.62,2.68,3.32h-4.18ZM29.6,7.15c-.04-.79-.58-1.51-1.43-1.51s-1.46.66-1.5,1.51h2.93Z"/><path class="cls-2" d="M37.17,10.5h-1.19v-.77h-.02c-.33.65-1.04.92-1.76.92-1.79,0-2.66-1.33-2.66-3.04,0-2.06,1.22-2.96,2.46-2.96.71,0,1.51.26,1.89.89h.02v-2.9h1.25v7.85ZM34.36,9.66c1.12,0,1.6-1.02,1.6-2.01,0-1.25-.61-2-1.57-2-1.18,0-1.6,1.04-1.6,2.07s.48,1.95,1.57,1.95Z"/><path class="cls-2" d="M41.62,2.64h1.25v2.9h.02c.34-.55,1.06-.89,1.69-.89,1.79,0,2.66,1.36,2.66,3.03,0,1.53-.77,2.97-2.45,2.97-.77,0-1.6-.19-1.97-.94h-.02v.78h-1.19V2.64ZM44.43,5.65c-1.06,0-1.6.8-1.6,2.01,0,1.14.58,2,1.6,2,1.14,0,1.57-1.01,1.57-2s-.54-2.01-1.57-2.01Z"/><path class="cls-2" d="M47.68,4.81h1.38l1.49,4.25h.02l1.44-4.25h1.31l-2.21,6c-.41,1.02-.7,1.95-2.01,1.95-.3,0-.58-.02-.87-.07v-1.06c.2.03.4.08.59.08.58,0,.73-.31.88-.79l.14-.44-2.16-5.67Z"/><path class="cls-2" d="M56.51,4.81h.95v-1.71h1.25v1.71h1.13v.94h-1.13v3.04c0,.52.04.78.61.78.18,0,.35,0,.53-.04v.97c-.27.02-.54.07-.81.07-1.31,0-1.55-.51-1.57-1.45v-3.36h-.95v-.94Z"/><path class="cls-2" d="M60.74,2.64h1.25v2.92h.02c.31-.52.96-.9,1.71-.9,1.23,0,2.01.66,2.01,1.94v3.91h-1.25v-3.58c-.02-.89-.37-1.28-1.11-1.28-.84,0-1.38.66-1.38,1.5v3.36h-1.25V2.64Z"/><path class="cls-2" d="M68.03,7.98c0,.89.48,1.68,1.53,1.68.73,0,1.17-.32,1.39-.95h1.19c-.27,1.24-1.33,1.94-2.57,1.94-1.78,0-2.78-1.24-2.78-2.99,0-1.62,1.06-3,2.75-3,1.79,0,2.89,1.62,2.68,3.32h-4.18ZM70.96,7.15c-.04-.79-.58-1.51-1.43-1.51s-1.46.66-1.5,1.51h2.93Z"/><path class="cls-2" d="M17.46,21.5h-.88l-.21-.92c-.74.84-1.41,1.11-2.37,1.11-2.35,0-3.76-1.87-3.76-4.12s1.41-4.11,3.76-4.11c1.72,0,3.16.91,3.37,2.68h-1.34c-.13-1.03-1.03-1.56-2.02-1.56-1.68,0-2.39,1.49-2.39,2.99s.7,2.99,2.39,2.99c1.41.02,2.18-.82,2.2-2.16h-2.09v-1.05h3.34v4.14Z"/><path class="cls-2" d="M18.51,18.65c0-1.74,1.05-2.99,2.87-2.99s2.87,1.25,2.87,2.99-1.04,3-2.87,3-2.87-1.25-2.87-3ZM23,18.65c0-.98-.5-2-1.62-2s-1.62,1.02-1.62,2,.5,2.01,1.62,2.01,1.62-1.02,1.62-2.01Z"/><path class="cls-2" d="M24.74,15.81h1.36l1.44,4.37h.02l1.39-4.37h1.3l-2.04,5.69h-1.41l-2.07-5.69Z"/><path class="cls-2" d="M31.99,18.98c0,.89.48,1.68,1.53,1.68.73,0,1.17-.32,1.39-.95h1.19c-.27,1.24-1.33,1.94-2.57,1.94-1.78,0-2.78-1.24-2.78-2.99,0-1.62,1.06-3,2.75-3,1.79,0,2.89,1.62,2.68,3.32h-4.18ZM34.92,18.15c-.04-.79-.58-1.51-1.43-1.51s-1.46.66-1.5,1.51h2.93Z"/><path class="cls-2" d="M37.13,15.81h1.18v1.1h.02c.14-.61.89-1.25,1.66-1.25.29,0,.36.02.47.03v1.21c-.18-.02-.36-.06-.54-.06-.86,0-1.54.69-1.54,1.95v2.71h-1.25v-5.69Z"/><path class="cls-2" d="M41.19,15.81h1.19v.84l.02.02c.37-.63,1.02-1.01,1.77-1.01,1.23,0,2.01.66,2.01,1.94v3.91h-1.25v-3.58c-.02-.89-.37-1.28-1.11-1.28-.84,0-1.38.66-1.38,1.5v3.36h-1.25v-5.69Z"/><path class="cls-2" d="M47.51,15.81h1.19v.79h.03c.37-.56.85-.95,1.75-.95.69,0,1.34.3,1.6.95.42-.58.96-.95,1.78-.95,1.2,0,1.9.53,1.9,1.91v3.93h-1.25v-3.32c0-.9-.06-1.53-1.03-1.53-.85,0-1.21.56-1.21,1.52v3.33h-1.25v-3.65c0-.78-.24-1.2-1-1.2-.65,0-1.24.53-1.24,1.47v3.38h-1.25v-5.69Z"/><path class="cls-2" d="M58.06,18.98c0,.89.48,1.68,1.53,1.68.73,0,1.17-.32,1.39-.95h1.19c-.27,1.24-1.33,1.94-2.57,1.94-1.78,0-2.78-1.24-2.78-2.99,0-1.62,1.06-3,2.75-3,1.79,0,2.89,1.62,2.68,3.32h-4.18ZM60.98,18.15c-.04-.79-.58-1.51-1.43-1.51s-1.46.66-1.5,1.51h2.93Z"/><path class="cls-2" d="M63.19,15.81h1.19v.84l.02.02c.37-.63,1.02-1.01,1.77-1.01,1.23,0,2.01.66,2.01,1.94v3.91h-1.25v-3.58c-.02-.89-.37-1.28-1.11-1.28-.84,0-1.38.66-1.38,1.5v3.36h-1.25v-5.69Z"/><path class="cls-2" d="M68.94,15.81h.95v-1.7h1.25v1.7h1.13v.94h-1.13v3.04c0,.52.04.78.61.78.18,0,.35,0,.53-.04v.97c-.27.02-.54.07-.81.07-1.31,0-1.55-.51-1.57-1.45v-3.36h-.95v-.94Z"/><path class="cls-2" d="M20.54,29.65c0-1.74,1.05-2.99,2.87-2.99s2.87,1.25,2.87,2.99-1.04,3-2.87,3-2.87-1.25-2.87-3ZM25.03,29.65c0-.98-.5-2-1.62-2s-1.62,1.02-1.62,2,.5,2.01,1.62,2.01,1.62-1.02,1.62-2.01Z"/><path class="cls-2" d="M26.76,26.81h.94v-.47c0-1.45.76-1.69,1.57-1.69.4,0,.68.02.88.08v.98c-.17-.04-.33-.07-.58-.07-.34,0-.62.12-.62.59v.58h1.07v.93h-1.07v4.75h-1.25v-4.75h-.94v-.93Z"/><path class="cls-2" d="M39.33,27.14c-.23-.9-.81-1.56-1.96-1.56-1.68,0-2.39,1.49-2.39,2.99s.7,2.99,2.39,2.99c1.22,0,1.89-.91,2-2.06h1.34c-.11,1.88-1.44,3.18-3.34,3.18-2.35,0-3.76-1.87-3.76-4.12s1.41-4.11,3.76-4.11c1.77.01,3.17.99,3.33,2.68h-1.38Z"/><path class="cls-2" d="M46.55,31.23c0,.31.07.43.3.43.08,0,.18,0,.31-.02v.87c-.19.07-.58.14-.79.14-.51,0-.87-.18-.97-.69-.5.48-1.3.69-1.97.69-1.02,0-1.95-.55-1.95-1.66,0-1.42,1.13-1.65,2.19-1.77.9-.16,1.71-.07,1.71-.8,0-.65-.67-.77-1.18-.77-.7,0-1.2.29-1.25.9h-1.25c.09-1.46,1.33-1.89,2.59-1.89,1.11,0,2.28.45,2.28,1.65v2.93ZM45.3,29.65c-.38.25-.99.24-1.54.34-.54.09-1.02.29-1.02.95,0,.56.71.73,1.15.73.55,0,1.41-.29,1.41-1.08v-.94Z"/><path class="cls-2" d="M47.9,26.81h1.19v.84l.02.02c.37-.63,1.02-1.01,1.77-1.01,1.23,0,2.01.66,2.01,1.94v3.91h-1.25v-3.58c-.02-.89-.37-1.28-1.11-1.28-.84,0-1.38.66-1.38,1.5v3.36h-1.25v-5.69Z"/><path class="cls-2" d="M58.98,31.23c0,.31.07.43.3.43.08,0,.18,0,.31-.02v.87c-.19.07-.58.14-.79.14-.51,0-.87-.18-.97-.69-.5.48-1.3.69-1.97.69-1.02,0-1.95-.55-1.95-1.66,0-1.42,1.13-1.65,2.19-1.77.9-.16,1.71-.07,1.71-.8,0-.65-.67-.77-1.18-.77-.7,0-1.2.29-1.25.9h-1.25c.09-1.46,1.33-1.89,2.59-1.89,1.11,0,2.28.45,2.28,1.65v2.93ZM57.73,29.65c-.38.25-.99.24-1.54.34-.54.09-1.02.29-1.02.95,0,.56.71.73,1.15.73.55,0,1.41-.29,1.41-1.08v-.94Z"/><path class="cls-2" d="M65.69,32.5h-1.19v-.77h-.02c-.33.65-1.04.92-1.76.92-1.79,0-2.66-1.33-2.66-3.04,0-2.06,1.22-2.96,2.46-2.96.71,0,1.51.26,1.89.89h.02v-2.9h1.25v7.86ZM62.89,31.66c1.12,0,1.6-1.02,1.6-2.01,0-1.25-.6-2-1.57-2-1.18,0-1.6,1.04-1.6,2.07s.48,1.95,1.57,1.95Z"/><path class="cls-2" d="M71.82,31.23c0,.31.07.43.3.43.08,0,.18,0,.31-.02v.87c-.19.07-.58.14-.79.14-.51,0-.87-.18-.97-.69-.5.48-1.3.69-1.97.69-1.02,0-1.95-.55-1.95-1.66,0-1.42,1.13-1.65,2.19-1.77.9-.16,1.71-.07,1.71-.8,0-.65-.67-.77-1.18-.77-.7,0-1.2.29-1.25.9h-1.25c.09-1.46,1.33-1.89,2.59-1.89,1.11,0,2.28.45,2.28,1.65v2.93ZM70.56,29.65c-.38.25-.99.24-1.54.34-.54.09-1.02.29-1.02.95,0,.56.71.73,1.15.73.55,0,1.41-.29,1.41-1.08v-.94Z"/><path class="cls-2" d="M289.7,5.64c0-.24-.03-.85-.74-.84-.71,0-5.47.25-5.8.28-.33.03-.59.36-.01.41.58.05,3.12.25,3.12,4.44,0,.28.02,16.17,0,13.72.06,5.09-1.9,6.9-4.08,6.9-3.44-.01-5.26-4.12-5.26-8.06,0-4.37,2.43-7.26,5.03-7.11,3.54.21,4.3,3.11,4.31,8.27v-8.56c.03,1.04.03,1.19-.44.83-.39-.3-2.2-1.42-4.49-1.43-3.73,0-8.32,2.65-8.32,8.24,0,5.92,4.19,8.73,8.54,8.73,2.12,0,3.62-.95,4.15-1.27.6-.37.55-.34.66.21.08.42.03,1.18,1.1,1.07,1.21-.12,4.01-.47,4.59-.59.56-.11.43-.48-.08-.54-.35-.04-2.28.19-2.28-5.81V5.64Z"/><path class="cls-2" d="M215.93,5.8c.29.1,1.2.45,1.49-.23.29-.68.1-.21.2-.44.14-.34.82-.62.95.17.13.79.59,7.58.61,7.95.05.8-1.03.88-1.09.09-.08-1.05-2.18-7.95-7.91-7.83-5.11.1-8.47,6.01-8.27,13.65.18,7.14,3.63,11.08,9.27,10.96,5.44-.11,6.95-4.25,7.75-6.78.33-1.05,1.31-.76,1.08.2-1,4.22-4.2,7.8-9.97,7.91-6.31.13-13.12-4.64-13.29-13.07-.18-8.68,6.68-13.7,13.45-13.84,2.87-.06,4.72.9,5.73,1.25Z"/><rect class="cls-1" x="291.77" y="4.93" width="4.12" height="8.23"/><path class="cls-1" d="M300.17,12.53s-.06-1.39-.06-1.53.12-.19.25-.16c.14.03,1.44.29,1.44.29,0,0-.1-.28-.17-.49-.07-.21.02-.25.07-.29l1.45-1.25-.23-.11c-.14-.06-.12-.18-.1-.26l.25-.89s-.6.14-.75.16c-.11.02-.15-.03-.19-.11l-.18-.43-.76.83c-.14.13-.28.03-.26-.12.02-.14.38-1.78.38-1.78,0,0-.39.23-.52.31-.13.08-.2.06-.27-.06-.07-.13-.55-1.1-.55-1.1h0s-.49.97-.55,1.1c-.07.12-.14.14-.27.06-.13-.08-.52-.31-.52-.31,0,0,.36,1.64.38,1.78.03.15-.11.25-.25.12l-.76-.83-.18.43c-.03.08-.07.13-.19.11-.14-.02-.77-.16-.77-.16l.28.89c.02.08.04.19-.1.26l-.23.11,1.45,1.25s.14.08.07.29c-.07.21-.17.49-.17.49,0,0,1.3-.26,1.44-.29.14-.03.25.02.25.16s-.06,1.53-.06,1.53h.36Z"/><rect class="cls-1" x="304.12" y="4.93" width="4.12" height="8.23"/><path class="cls-2" d="M229.61,19.23c.04,1.72-.27,2.24-1.33,2.76-.97.48-3.68.88-4.03.96-1.1.25-4.18,1.03-4.11,4.26.07,3.19,3.22,4.26,5.42,4.21,2.13-.05,3.38-.97,3.94-1.42.33-.27.3-.2.58.11.31.34,1.37,1.36,3.82,1.35,2.49-.01,2.86-1.19,3-1.55.19-.49-.33-.75-.52-.31-.31.73-.94.93-1.37.92-.48,0-1.89-.12-1.9-3.76,0,0,0-7.5,0-7.94,0-2.45-1.87-4.45-6.81-4.45-5.32,0-5.34,2.62-5.38,3.27-.04.74.35,1.51,1.68,1.52,1.2,0,1.49-1.3,1.66-1.81.18-.52.21-2.14,2.36-2.1,1.84,0,2.97,1.62,2.97,3.92l.04,6.94c0,2.43-1.25,4.37-3.1,4.37-2.22,0-2.77-1.85-2.79-2.73-.02-.87.46-2.7,2.65-3.96,0,0,1.02-.66,2.96-1.4.18-.04.26,0,.26.4v-3.56Z"/><path class="cls-2" d="M266.21,19.23c.04,1.72-.27,2.24-1.33,2.76-.97.48-3.68.88-4.03.96-1.1.25-4.18,1.03-4.11,4.26.07,3.19,3.22,4.26,5.42,4.21,2.13-.05,3.38-.97,3.94-1.42.33-.27.3-.2.58.11.3.34,1.37,1.36,3.82,1.35,2.49-.01,2.86-1.19,3-1.55.19-.49-.33-.75-.52-.31-.31.73-.94.93-1.37.92-.48,0-1.89-.12-1.9-3.76,0,0,0-7.5,0-7.94,0-2.45-1.87-4.45-6.81-4.45-5.32,0-5.34,2.62-5.38,3.27-.04.74.35,1.51,1.68,1.52,1.2,0,1.49-1.3,1.66-1.81.18-.52.21-2.14,2.36-2.1,1.83,0,2.97,1.62,2.97,3.92l.04,6.94c0,2.43-1.25,4.37-3.1,4.37-2.22,0-2.77-1.85-2.79-2.73-.02-.87.46-2.7,2.65-3.96,0,0,1.02-.66,2.96-1.4.18-.04.26,0,.26.4l-.02-3.56Z"/><path class="cls-2" d="M302.33,19.23c.04,1.72-.27,2.24-1.33,2.76-.97.48-3.68.88-4.03.96-1.1.25-4.18,1.03-4.11,4.26.07,3.19,3.22,4.26,5.42,4.21,2.13-.05,3.38-.97,3.94-1.42.33-.27.3-.2.58.11.31.34,1.37,1.36,3.82,1.35,2.49-.01,2.86-1.19,3-1.55.19-.49-.33-.75-.52-.31-.31.73-.94.93-1.37.92-.48,0-1.89-.12-1.9-3.76,0,0,0-7.5,0-7.94,0-2.45-1.87-4.45-6.81-4.45-5.32,0-5.34,2.62-5.38,3.27-.04.74.35,1.51,1.68,1.52,1.21,0,1.49-1.3,1.66-1.81.18-.52.21-2.14,2.36-2.1,1.83,0,2.97,1.62,2.97,3.92l.04,6.94c0,2.43-1.25,4.37-3.1,4.37-2.22,0-2.77-1.85-2.79-2.73-.02-.87.46-2.7,2.65-3.96,0,0,1.02-.66,2.97-1.4.18-.04.26,0,.26.4v-3.56Z"/><path class="cls-2" d="M250.3,27.07c0,2.73-.79,3.61-1.72,3.8-.86.17-.68.59-.27.58.18,0,7.31,0,7.32,0,.6,0,1.01-.38-.05-.63-.65-.15-1.73-.88-1.73-4.31l-.02-6.34c-.01-1.52.16-5.34-5.8-5.34-3.04,0-4.83,1.54-5,1.68-.27.21-.39.31-.51-.09-.09-.31-.26-.82-.35-1.09-.09-.27-.2-.49-.78-.41-.58.08-4.05.63-4.63.77-.58.14-.42.39,0,.46.42.07,2.29.22,2.28,3.46-.01,3.24,0,6.78,0,6.78.02,3.91-.81,4.27-1.53,4.47-.94.26-.5.59-.05.59.01,0,7.02,0,7.2,0,.48,0,.69-.44-.27-.6-.94-.16-1.82-.71-1.8-3.78,0-.3,0-3.71,0-4.33-.02-1.63-.41-6.74,4.2-6.78,3.22-.1,3.53,2.58,3.54,4.37v6.74Z"/></svg>